<svg xmlns="http://www.w3.org/2000/svg" xmlns:xlink="http://www.w3.org/1999/xlink" width="210.868" height="68.769" viewBox="0 0 210.868 68.769">
  <defs>
    <clipPath id="clip-path">
      <rect id="Rectangle_5" data-name="Rectangle 5" width="210.868" height="68.769" transform="translate(0 0)" fill="none"/>
    </clipPath>
  </defs>
  <g id="Group_2" data-name="Group 2" transform="translate(0 0)">
    <g id="Group_1" data-name="Group 1" clip-path="url(#clip-path)">
      <path id="Path_1" data-name="Path 1" d="M68.888,34.444a34.821,34.821,0,0,0-.352-4.9A27.635,27.635,0,0,1,58.044,52.889c-7.69,6.273-19.318,8.1-34.006-1.347l17.039-11.68L39.965,46.47c7.859,1.854,13.7.6,17.87-2.265,15.255-10.421,8.479-31.483-6.941-33.579a24.855,24.855,0,0,0-5.886-6A22.228,22.228,0,0,1,57.233,8.628,34.431,34.431,0,0,0,22.954,1.971a28.369,28.369,0,0,1,15.359,1.5C47.591,7,54.989,16.151,54.148,33.6L35.515,24.681l6.277-2.342C39.472,14.607,35.465,10.173,30.9,7.995,14.243,0-.608,16.4,5.288,30.8a24.9,24.9,0,0,0-2.257,8.1A22.165,22.165,0,0,1,.347,29.6,34.4,34.4,0,0,0,18.326,64.884,27.659,27.659,0,0,1,5.382,45.271C3.8,35.47,8.025,24.49,23.552,16.491l1.6,20.6-5.166-4.265c-5.537,5.878-7.372,11.566-6.976,16.607C14.4,67.853,36.037,72.515,45.561,60.2a24.956,24.956,0,0,0,8.144-2.094A22.912,22.912,0,0,1,37.181,68.77,34.44,34.44,0,0,0,68.888,34.444" fill="#c30032"/>
      <path id="Path_2" data-name="Path 2" d="M96.12,10.562V13.3H83.581v3.179H96.12v2.94H83.581v5.42h-3V10.562Z" fill="#002350"/>
      <path id="Path_3" data-name="Path 3" d="M113.859,10.562V13.3H101.3v3.179h12.558v2.54H101.3V22.1h12.558v2.74H98.321V10.562Z" fill="#002350"/>
      <path id="Path_4" data-name="Path 4" d="M126.717,10.562q.64,0,1.45.07a8.279,8.279,0,0,1,1.65.32,7.233,7.233,0,0,1,1.63.72,5.252,5.252,0,0,1,1.419,1.26,6.165,6.165,0,0,1,1.01,1.96,9.16,9.16,0,0,1,.38,2.81,9.158,9.158,0,0,1-.38,2.809,6.165,6.165,0,0,1-1.01,1.96,5.252,5.252,0,0,1-1.419,1.26,7.184,7.184,0,0,1-1.63.719,8.282,8.282,0,0,1-1.65.321q-.81.069-1.45.07H116.058V10.562Zm.46,11.5a4.346,4.346,0,0,0,1.71-.31,3.185,3.185,0,0,0,1.21-.88,3.808,3.808,0,0,0,.72-1.38,6.279,6.279,0,0,0,.24-1.789,6.176,6.176,0,0,0-.24-1.78,3.82,3.82,0,0,0-.72-1.37,3.185,3.185,0,0,0-1.21-.88,4.346,4.346,0,0,0-1.71-.31h-8.119v8.7Z" fill="#002350"/>
      <path id="Path_5" data-name="Path 5" d="M151.995,10.562V13.3H139.436v3.179h12.559v2.54H139.436V22.1h12.559v2.74H136.456V10.562Z" fill="#002350"/>
      <path id="Path_6" data-name="Path 6" d="M171.233,15.9a6.139,6.139,0,0,1-.3,2.03,4.536,4.536,0,0,1-.8,1.44,4.043,4.043,0,0,1-1.16.95,6.5,6.5,0,0,1-1.38.56l4.36,3.96h-4.38l-3.76-3.6h-6.639v3.6h-2.98V10.562h10.22q.639,0,1.389.05a9.169,9.169,0,0,1,1.51.23,6.93,6.93,0,0,1,1.47.53,4.119,4.119,0,0,1,1.25.95,4.642,4.642,0,0,1,.87,1.469,5.974,5.974,0,0,1,.33,2.11m-14.059,2.56h8.359a2.845,2.845,0,0,0,1.25-.24,2.05,2.05,0,0,0,.77-.62,2.332,2.332,0,0,0,.39-.83,3.491,3.491,0,0,0,0-1.739,2.233,2.233,0,0,0-.39-.82,2.111,2.111,0,0,0-.77-.611,2.86,2.86,0,0,0-1.25-.239h-8.359Z" fill="#002350"/>
      <path id="Path_7" data-name="Path 7" d="M185.951,10.562l7.18,14.278H189.69l-1.559-3.1h-8.979l-1.56,3.1h-3.44l7.2-14.278Zm.88,8.6-3.179-6.319-3.18,6.319Z" fill="#002350"/>
      <path id="Path_8" data-name="Path 8" d="M210.868,22.1v2.74H195.33V10.562h3V22.1Z" fill="#002350"/>
      <path id="Path_9" data-name="Path 9" d="M98.761,34.619a4.149,4.149,0,0,1-.341,1.64,3.857,3.857,0,0,1-1.1,1.44,3.84,3.84,0,0,1,1.1,1.45,4.174,4.174,0,0,1,.341,1.63,4.249,4.249,0,0,1-.38,1.89,3.434,3.434,0,0,1-1.021,1.249,4.2,4.2,0,0,1-1.5.7,7.228,7.228,0,0,1-1.8.22H80.582V30.56H94.061a7.228,7.228,0,0,1,1.8.22,4.213,4.213,0,0,1,1.5.7,3.434,3.434,0,0,1,1.021,1.249,4.252,4.252,0,0,1,.38,1.89m-4.78,1.78a1.864,1.864,0,0,0,1.28-.46,1.462,1.462,0,0,0,.52-1.14,1.346,1.346,0,0,0-.49-1.1,1.855,1.855,0,0,0-1.21-.4H83.562v3.1Zm-10.419,2.62V42.1H94.121a1.822,1.822,0,0,0,1.17-.39,1.383,1.383,0,0,0,.49-1.15,1.368,1.368,0,0,0-.52-1.12,2.134,2.134,0,0,0-1.38-.42Z" fill="#002350"/>
      <path id="Path_10" data-name="Path 10" d="M111.6,30.56q.641,0,1.45.07a8.265,8.265,0,0,1,1.65.32,7.444,7.444,0,0,1,1.64.72,5.07,5.07,0,0,1,1.42,1.26,6.342,6.342,0,0,1,1,1.96,9.16,9.16,0,0,1,.38,2.81,9.158,9.158,0,0,1-.38,2.809,6.342,6.342,0,0,1-1,1.96,5.07,5.07,0,0,1-1.42,1.26,7.393,7.393,0,0,1-1.64.719,8.269,8.269,0,0,1-1.65.321q-.809.069-1.45.07h-3.1q-.641,0-1.45-.07a8.282,8.282,0,0,1-1.65-.321,7.366,7.366,0,0,1-1.639-.719,5.042,5.042,0,0,1-1.42-1.26,6.278,6.278,0,0,1-1-1.96,9.127,9.127,0,0,1-.38-2.809,9.129,9.129,0,0,1,.38-2.81,6.278,6.278,0,0,1,1-1.96,5.042,5.042,0,0,1,1.42-1.26,7.417,7.417,0,0,1,1.639-.72,8.279,8.279,0,0,1,1.65-.32q.81-.069,1.45-.07Zm.28,11.5a5.181,5.181,0,0,0,2.06-.35,3.088,3.088,0,0,0,1.25-.94,3.331,3.331,0,0,0,.61-1.38,9.006,9.006,0,0,0,0-3.38,3.333,3.333,0,0,0-.61-1.379,3.018,3.018,0,0,0-1.25-.93,5.3,5.3,0,0,0-2.06-.34H108.2a5.228,5.228,0,0,0-2.049.34,3.023,3.023,0,0,0-1.24.93,3.332,3.332,0,0,0-.61,1.379,9.061,9.061,0,0,0,0,3.38,3.331,3.331,0,0,0,.61,1.38,3.094,3.094,0,0,0,1.24.94,5.106,5.106,0,0,0,2.049.35Z" fill="#002350"/>
      <path id="Path_11" data-name="Path 11" d="M139.837,30.56l-7.06,7.14,7.06,7.139h-4.16l-5.079-5.42-5.1,5.42h-4.16L128.4,37.7l-7.059-7.14h4.16l5.1,5.42,5.079-5.42Z" fill="#002350"/>
      <path id="Path_12" data-name="Path 12" d="M160.534,30.56l-7.06,7.14,7.06,7.139h-4.16l-5.079-5.42-5.1,5.42h-4.16L149.1,37.7l-7.059-7.14h4.16l5.1,5.42,5.079-5.42Z" fill="#002350"/>
      <path id="Path_13" data-name="Path 13" d="M80.582,56.245l.367-.435a2.5,2.5,0,0,0,1.8.742c.7,0,1.169-.374,1.169-.891v-.016c0-.486-.263-.764-1.364-1-1.206-.262-1.761-.652-1.761-1.513v-.015a1.55,1.55,0,0,1,1.724-1.431,2.734,2.734,0,0,1,1.842.644l-.344.457a2.3,2.3,0,0,0-1.513-.569c-.683,0-1.117.375-1.117.846v.015c0,.495.27.772,1.424,1.019s1.708.682,1.708,1.484V55.6c0,.9-.749,1.484-1.79,1.484a3.068,3.068,0,0,1-2.143-.839" fill="#1a1818"/>
      <path id="Path_14" data-name="Path 14" d="M85.63,53.136h.577v.779a1.74,1.74,0,0,1,1.483-.861,1.889,1.889,0,0,1,1.85,2.008v.014a1.9,1.9,0,0,1-1.85,2.016,1.746,1.746,0,0,1-1.483-.824v1.94H85.63Zm3.318,1.948v-.015a1.4,1.4,0,0,0-1.363-1.5,1.445,1.445,0,0,0-1.4,1.492v.014a1.442,1.442,0,0,0,1.4,1.5,1.366,1.366,0,0,0,1.363-1.491" fill="#1a1818"/>
      <path id="Path_15" data-name="Path 15" d="M92.317,56.6a1.6,1.6,0,0,0,1.221-.547l.36.322a2,2,0,0,1-1.6.727,2.028,2.028,0,0,1-.075-4.046,1.846,1.846,0,0,1,1.806,2.053c0,.052,0,.113-.008.2H90.954A1.353,1.353,0,0,0,92.317,56.6m1.131-1.753a1.271,1.271,0,0,0-1.235-1.3,1.337,1.337,0,0,0-1.259,1.3Z" fill="#1a1818"/>
      <path id="Path_16" data-name="Path 16" d="M96.756,56.6a1.6,1.6,0,0,0,1.221-.547l.36.322a2,2,0,0,1-1.6.727,2.028,2.028,0,0,1-.075-4.046,1.846,1.846,0,0,1,1.806,2.053c0,.052,0,.113-.008.2H95.393A1.353,1.353,0,0,0,96.756,56.6m1.131-1.753a1.271,1.271,0,0,0-1.235-1.3,1.337,1.337,0,0,0-1.259,1.3Z" fill="#1a1818"/>
      <path id="Path_17" data-name="Path 17" d="M99.264,55.084v-.015a1.9,1.9,0,0,1,1.85-2.015,1.75,1.75,0,0,1,1.484.823V51.54h.576v5.469H102.6V56.23a1.744,1.744,0,0,1-1.484.862,1.889,1.889,0,0,1-1.85-2.008m3.356-.008v-.015a1.441,1.441,0,0,0-1.4-1.491,1.368,1.368,0,0,0-1.364,1.491v.015a1.4,1.4,0,0,0,1.364,1.5,1.447,1.447,0,0,0,1.4-1.5" fill="#1a1818"/>
      <path id="Path_18" data-name="Path 18" d="M104.168,57.661c.373-.135.532-.33.5-.652H104.4v-.786h.691V56.9a.922.922,0,0,1-.833,1.026Z" fill="#1a1818"/>
      <path id="Path_19" data-name="Path 19" d="M108.651,51.765h1.963c1.184,0,1.963.629,1.963,1.663v.015c0,1.131-.944,1.716-2.06,1.716h-1.274v1.85h-.592Zm1.888,2.854c.869,0,1.438-.464,1.438-1.154v-.014c0-.75-.562-1.14-1.408-1.14h-1.326v2.308Z" fill="#1a1818"/>
      <path id="Path_20" data-name="Path 20" d="M113.564,53.135h.577v1.012a1.656,1.656,0,0,1,1.58-1.079v.622h-.045a1.561,1.561,0,0,0-1.535,1.775v1.544h-.577Z" fill="#1a1818"/>
      <path id="Path_21" data-name="Path 21" d="M118.309,56.6a1.6,1.6,0,0,0,1.221-.547l.36.322a2,2,0,0,1-1.6.727,2.028,2.028,0,0,1-.075-4.046,1.846,1.846,0,0,1,1.806,2.053c0,.052,0,.113-.008.2h-3.071a1.353,1.353,0,0,0,1.363,1.289m1.131-1.753a1.271,1.271,0,0,0-1.235-1.3,1.337,1.337,0,0,0-1.259,1.3Z" fill="#1a1818"/>
      <path id="Path_22" data-name="Path 22" d="M120.8,55.091v-.015a2.017,2.017,0,0,1,3.536-1.334l-.382.4a1.56,1.56,0,0,0-1.175-.584,1.429,1.429,0,0,0-1.387,1.5v.015a1.447,1.447,0,0,0,1.424,1.506A1.594,1.594,0,0,0,124,56.005l.367.345a2,2,0,0,1-3.566-1.259" fill="#1a1818"/>
      <path id="Path_23" data-name="Path 23" d="M125.337,51.651H126v.637h-.659Zm.037,1.484h.577v3.874h-.577Z" fill="#1a1818"/>
      <path id="Path_24" data-name="Path 24" d="M126.972,56.514l.292-.412a2.264,2.264,0,0,0,1.341.495c.465,0,.8-.24.8-.615v-.015c0-.39-.457-.539-.966-.682-.608-.172-1.282-.382-1.282-1.093v-.015a1.172,1.172,0,0,1,1.319-1.109,2.648,2.648,0,0,1,1.393.427l-.262.435a2.186,2.186,0,0,0-1.146-.375c-.457,0-.75.24-.75.562v.015c0,.367.48.509,1,.667.6.179,1.243.411,1.243,1.108v.015a1.218,1.218,0,0,1-1.377,1.161,2.666,2.666,0,0,1-1.6-.569" fill="#1a1818"/>
      <path id="Path_25" data-name="Path 25" d="M131.044,51.651h.659v.637h-.659Zm.038,1.484h.577v3.874h-.577Z" fill="#1a1818"/>
      <path id="Path_26" data-name="Path 26" d="M132.761,55.091v-.015a2.019,2.019,0,0,1,4.038-.015v.015A2.011,2.011,0,0,1,134.77,57.1a1.984,1.984,0,0,1-2.009-2.008m3.447,0v-.015a1.465,1.465,0,0,0-1.438-1.513,1.428,1.428,0,0,0-1.416,1.5v.015a1.453,1.453,0,0,0,1.431,1.506,1.43,1.43,0,0,0,1.423-1.491" fill="#1a1818"/>
      <path id="Path_27" data-name="Path 27" d="M137.846,53.135h.577v.674a1.466,1.466,0,0,1,1.325-.756,1.415,1.415,0,0,1,1.484,1.551v2.4h-.576V54.746a1.033,1.033,0,0,0-1.072-1.169,1.139,1.139,0,0,0-1.161,1.214v2.218h-.577Z" fill="#1a1818"/>
      <path id="Path_28" data-name="Path 28" d="M142.165,57.661c.374-.135.532-.33.5-.652h-.27v-.786h.69V56.9a.921.921,0,0,1-.832,1.026Z" fill="#1a1818"/>
      <path id="Path_29" data-name="Path 29" d="M146.417,54.4v-.015a2.632,2.632,0,0,1,2.63-2.712,2.762,2.762,0,0,1,1.955.7l-.382.449a2.233,2.233,0,0,0-1.6-.6,2.048,2.048,0,0,0-1.992,2.15v.015a2.027,2.027,0,0,0,2.075,2.181,2.472,2.472,0,0,0,1.514-.525v-1.3h-1.6v-.532h2.166V56.3a3.18,3.18,0,0,1-2.1.8,2.571,2.571,0,0,1-2.667-2.7" fill="#1a1818"/>
      <rect id="Rectangle_3" data-name="Rectangle 3" width="0.577" height="5.469" transform="translate(152.484 51.539)" fill="#1a1818"/>
      <path id="Path_30" data-name="Path 30" d="M154.165,55.091v-.015a2.019,2.019,0,0,1,4.038-.015v.015a2.011,2.011,0,0,1-2.03,2.023,1.984,1.984,0,0,1-2.008-2.008m3.446,0v-.015a1.465,1.465,0,0,0-1.438-1.513,1.429,1.429,0,0,0-1.416,1.5v.015a1.453,1.453,0,0,0,1.431,1.506,1.429,1.429,0,0,0,1.423-1.491" fill="#1a1818"/>
      <path id="Path_31" data-name="Path 31" d="M159.826,56.268v.741h-.577V51.54h.577v2.375a1.74,1.74,0,0,1,1.483-.861,1.889,1.889,0,0,1,1.85,2.008v.014a1.9,1.9,0,0,1-1.85,2.016,1.746,1.746,0,0,1-1.483-.824m2.741-1.184v-.015a1.4,1.4,0,0,0-1.363-1.5,1.445,1.445,0,0,0-1.4,1.492v.014a1.442,1.442,0,0,0,1.4,1.5,1.366,1.366,0,0,0,1.363-1.491" fill="#1a1818"/>
      <path id="Path_32" data-name="Path 32" d="M163.936,55.884V55.87c0-.832.674-1.266,1.656-1.266a4.073,4.073,0,0,1,1.183.164v-.12c0-.689-.419-1.048-1.146-1.048a2.689,2.689,0,0,0-1.176.277l-.173-.472a3.179,3.179,0,0,1,1.409-.33,1.719,1.719,0,0,1,1.251.427,1.533,1.533,0,0,1,.4,1.139v2.367h-.57v-.576a1.7,1.7,0,0,1-1.393.659,1.3,1.3,0,0,1-1.446-1.207m2.847-.3v-.36a4,4,0,0,0-1.132-.164c-.719,0-1.131.314-1.131.778v.016c0,.486.45.771.974.771a1.159,1.159,0,0,0,1.289-1.041" fill="#1a1818"/>
      <rect id="Rectangle_4" data-name="Rectangle 4" width="0.577" height="5.469" transform="translate(168.623 51.539)" fill="#1a1818"/>
      <path id="Path_33" data-name="Path 33" d="M172.89,51.764h2.255a2.063,2.063,0,0,1,1.49.525,1.447,1.447,0,0,1,.4,1.034v.015a1.534,1.534,0,0,1-1.424,1.528l1.612,2.143H176.5l-1.52-2.038h-1.5v2.038h-.592Zm2.2,2.675c.787,0,1.349-.4,1.349-1.079v-.015c0-.644-.495-1.034-1.341-1.034h-1.618v2.128Z" fill="#1a1818"/>
      <path id="Path_34" data-name="Path 34" d="M179.922,56.6a1.6,1.6,0,0,0,1.221-.547l.36.322a2,2,0,0,1-1.6.727,2.028,2.028,0,0,1-.075-4.046,1.846,1.846,0,0,1,1.806,2.053c0,.052,0,.113-.008.2h-3.071a1.353,1.353,0,0,0,1.363,1.289m1.131-1.753a1.271,1.271,0,0,0-1.235-1.3,1.337,1.337,0,0,0-1.259,1.3Z" fill="#1a1818"/>
      <path id="Path_35" data-name="Path 35" d="M182.361,55.884V55.87c0-.832.674-1.266,1.656-1.266a4.073,4.073,0,0,1,1.183.164v-.12c0-.689-.419-1.048-1.146-1.048a2.689,2.689,0,0,0-1.176.277l-.173-.472a3.179,3.179,0,0,1,1.409-.33,1.719,1.719,0,0,1,1.251.427,1.533,1.533,0,0,1,.4,1.139v2.367h-.57v-.576a1.7,1.7,0,0,1-1.393.659,1.3,1.3,0,0,1-1.446-1.207m2.847-.3v-.36a4,4,0,0,0-1.132-.164c-.719,0-1.131.314-1.131.778v.016c0,.486.45.771.974.771a1.159,1.159,0,0,0,1.289-1.041" fill="#1a1818"/>
      <path id="Path_36" data-name="Path 36" d="M186.755,55.091v-.015a2.017,2.017,0,0,1,3.536-1.334l-.382.4a1.56,1.56,0,0,0-1.175-.584,1.429,1.429,0,0,0-1.387,1.5v.015a1.447,1.447,0,0,0,1.424,1.506,1.594,1.594,0,0,0,1.183-.577l.367.345a2,2,0,0,1-3.566-1.259" fill="#1a1818"/>
      <path id="Path_37" data-name="Path 37" d="M191.278,51.54h.577v2.27a1.466,1.466,0,0,1,1.325-.756,1.415,1.415,0,0,1,1.484,1.55v2.4h-.576V54.747a1.033,1.033,0,0,0-1.072-1.169,1.139,1.139,0,0,0-1.161,1.213v2.218h-.577Z" fill="#1a1818"/>
    </g>
  </g>
</svg>
